<?xml version="1.0" encoding="utf-8"?>
<!-- Generator: Adobe Illustrator 16.0.0, SVG Export Plug-In . SVG Version: 6.00 Build 0)  -->
<!DOCTYPE svg PUBLIC "-//W3C//DTD SVG 1.1//EN" "http://www.w3.org/Graphics/SVG/1.1/DTD/svg11.dtd">
<svg version="1.1" id="Layer_1" xmlns="http://www.w3.org/2000/svg" xmlns:xlink="http://www.w3.org/1999/xlink" x="0px" y="0px"
	 width="623px" height="228px" viewBox="0 0 623 228" enable-background="new 0 0 623 228" xml:space="preserve">
<path fill="#E06E5C" d="M623,0v33.98c0,107.07-86.95,193.87-194.09,193.87c-44.2,0-84.96-14.75-117.59-39.59
	c-32.61,24.84-73.33,39.59-117.5,39.59C86.68,227.85,0,140.078,0,34.154C0,29.231-0.04,0-0.04,0H623z"/>
<path opacity="0.15" fill="#2A2B2B" d="M387.82,36.98c0,5.771-0.354,11.369-1.002,16.825c0.662-6.519,1.002-13.132,1.002-19.825
	c-18,142.9-151,195.87-280,173.83c25.92,12.83,55.12,20.04,86,20.04c44.413,0,85.329-14.923,118.028-40.01
	c0.253,0.532,0.569,1.051,0.973,1.55C317.34,192.77,340,209,375,220C317,186.02,397.82,152.9,387.82,36.98z"/>
<g>
	<g>
		<path fill="#2A2B2B" d="M390.323,36.052c0,0-0.122,2.789-0.335,7.671c-0.054,1.221-0.113,2.572-0.178,4.043
			c-0.152,1.492-0.317,3.104-0.493,4.828c-0.177,1.722-0.365,3.554-0.563,5.485c-0.052,0.482-0.104,0.97-0.157,1.464
			c-0.079,0.488-0.159,0.982-0.241,1.483c-0.162,1-0.328,2.023-0.498,3.068c-0.34,2.088-0.694,4.264-1.061,6.515
			c-0.466,2.233-1.001,4.53-1.522,6.896c-0.928,4.76-2.505,9.631-3.911,14.718c-0.775,2.523-1.725,5.038-2.597,7.608
			c-0.447,1.282-0.896,2.572-1.348,3.868c-0.524,1.269-1.051,2.544-1.579,3.825c-0.529,1.279-1.061,2.563-1.594,3.852
			c-0.55,1.281-1.023,2.598-1.666,3.845c-1.215,2.522-2.436,5.055-3.655,7.586c-0.58,1.28-1.285,2.498-1.963,3.727
			c-0.68,1.228-1.358,2.454-2.036,3.678c-0.678,1.223-1.354,2.443-2.027,3.661c-0.74,1.178-1.479,2.353-2.213,3.523
			c-0.736,1.168-1.47,2.333-2.199,3.491c-0.742,1.149-1.417,2.334-2.231,3.417c-1.568,2.205-3.118,4.383-4.642,6.525
			c-0.383,0.534-0.764,1.065-1.143,1.595c-0.407,0.509-0.812,1.016-1.216,1.52c-0.806,1.008-1.604,2.006-2.394,2.993
			c-1.596,1.961-3.07,3.949-4.726,5.701c-1.606,1.792-3.169,3.534-4.68,5.22c-0.378,0.421-0.753,0.838-1.124,1.252
			c-0.394,0.393-0.784,0.781-1.171,1.167c-0.774,0.771-1.533,1.526-2.277,2.267c-1.486,1.479-2.911,2.898-4.266,4.247
			c-1.428,1.271-2.783,2.476-4.057,3.608c-1.272,1.131-2.464,2.189-3.566,3.168c-1.096,0.984-2.201,1.773-3.146,2.548
			c-2.183,1.725-3.552,2.817-4.567,3.621c0,0-1.094-0.797-1.969-1.484c0.991-0.813,3.161-1.876,5.295-3.627
			c0.922-0.782,2.001-1.581,3.068-2.575c1.072-0.987,2.231-2.056,3.471-3.197s2.557-2.357,3.946-3.638
			c1.314-1.357,2.697-2.784,4.14-4.273c0.722-0.744,1.458-1.504,2.209-2.278c0.375-0.388,0.754-0.778,1.136-1.172
			c0.359-0.416,0.722-0.835,1.087-1.258c1.462-1.69,2.974-3.438,4.527-5.234c1.603-1.756,3.021-3.746,4.561-5.707
			c0.761-0.987,1.53-1.985,2.308-2.993c0.389-0.503,0.778-1.01,1.171-1.518c0.364-0.528,0.73-1.06,1.098-1.593
			c1.464-2.137,2.951-4.31,4.458-6.509c0.783-1.08,1.426-2.26,2.137-3.404c0.697-1.153,1.398-2.312,2.103-3.475
			c0.703-1.164,1.408-2.332,2.115-3.503c0.642-1.209,1.285-2.422,1.93-3.638c0.645-1.215,1.29-2.432,1.937-3.65
			c0.646-1.219,1.316-2.427,1.864-3.696c1.153-2.508,2.308-5.016,3.457-7.515c0.609-1.234,1.051-2.538,1.567-3.804
			c0.5-1.273,0.999-2.542,1.496-3.807c0.496-1.265,0.991-2.524,1.483-3.777c0.419-1.279,0.837-2.552,1.252-3.817
			c0.81-2.536,1.698-5.015,2.413-7.5c1.286-5.011,2.749-9.8,3.57-14.476c0.469-2.324,0.953-4.579,1.37-6.769
			c0.318-2.208,0.626-4.34,0.922-6.388c0.148-1.023,0.293-2.025,0.435-3.005c0.071-0.49,0.141-0.974,0.21-1.452
			c0.043-0.479,0.085-0.951,0.126-1.418c0.158-1.867,0.309-3.637,0.45-5.301c0.143-1.663,0.276-3.219,0.399-4.659
			c0.038-1.472,0.073-2.823,0.105-4.044c0.126-4.884,0.197-7.675,0.197-7.675l0.001-0.025c0.035-1.38,1.183-2.471,2.563-2.435
			c1.38,0.035,2.471,1.183,2.435,2.563C390.324,36.018,390.323,36.042,390.323,36.052z"/>
	</g>
</g>
<g>
	<path fill="#2A2B2B" d="M387.054,38.5c-0.04,0-0.081-0.001-0.122-0.003c-0.706-0.035-1.484,0.05-1.932-0.497l-8.881-11.417
		c-0.875-1.068-1.188-2.708-0.119-3.583c1.067-0.873,3.112-0.653,3.988,0.417l7.247,8.857L398,21
		c0.486-0.489,1.242-0.732,1.998-0.732S401.512,20.513,402,21c0.541,0.542,0.782,1.383,0.734,2.195
		c-0.04,0.688-0.287,1.356-0.734,1.805l-12,12C389.529,37.472,387.717,38.5,387.054,38.5z"/>
</g>
</svg>
