<?xml version="1.0" encoding="utf-8"?>
<!-- Generator: Adobe Illustrator 16.0.0, SVG Export Plug-In . SVG Version: 6.00 Build 0)  -->
<!DOCTYPE svg PUBLIC "-//W3C//DTD SVG 1.1//EN" "http://www.w3.org/Graphics/SVG/1.1/DTD/svg11.dtd">
<svg version="1.1" id="Layer_1" xmlns="http://www.w3.org/2000/svg" xmlns:xlink="http://www.w3.org/1999/xlink" x="0px" y="0px"
	 width="64px" height="154px" viewBox="0 0 64 154" enable-background="new 0 0 64 154" xml:space="preserve">
<g>
	<g>
		<path fill="#694733" d="M-0.015,0v23.62c0,5.522,2.687,9.998,6,9.998c-3.313,0-6,4.478-6,9.998v45.99c0,5.522,2.687,9.998,6,9.998
			c-3.313,0-6,4.479-6,9.998v44.368L63.931,154l0.054-15.402c0-5.521-2.686-9.998-6-9.998c3.314,0,6-4.476,6-9.998V72.61
			c0-5.521-2.686-9.998-6-9.998c3.314,0,6-4.476,6-9.998V0H-0.015z"/>
		<g>
			<defs>
				<path id="SVGID_1_" d="M-0.015,0v23.62c0,5.522,2.687,9.998,6,9.998c-3.313,0-6,4.478-6,9.998v45.99
					c0,5.522,2.687,9.998,6,9.998c-3.313,0-6,4.479-6,9.998v44.368L63.931,154l0.054-15.402c0-5.521-2.686-9.622-6-9.622
					c3.314,0,6-4.852,6-10.374V72.61c0-5.521-2.686-9.998-6-9.998c3.314,0,6-4.476,6-9.998V0H-0.015z"/>
			</defs>
			<clipPath id="SVGID_2_">
				<use xlink:href="#SVGID_1_"  overflow="visible"/>
			</clipPath>
			<path opacity="0.15" clip-path="url(#SVGID_2_)" fill="#2A2B2B" d="M53.984,153.97h13V0h-13c0,0,0,12.998,0,28.994
				c0,15.997-5,32.994-5,32.994s6,6.999,6,31.994c0,24.995-5,32.993-6,33.993C53.984,130.974,53.984,153.97,53.984,153.97z"/>
			<path opacity="0.15" clip-path="url(#SVGID_2_)" fill="#2A2B2B" d="M8.985,153.97h-13V0h13c0,0,0,20.026,5,30.024
				c-3,4.999-6,6.999-6,31.994c0,24.996,5,32.994,6,33.994C8.985,99.011,8.985,153.97,8.985,153.97z"/>
		</g>
	</g>
	<g>
		<path opacity="0.15" fill="#2A2B2B" d="M40.47,140.262c-2.083-0.994-5.033-2.388-6.401-0.209c-1.368,2.18,0.311,2.999,2.392,3.993
			c2.083,0.996,3.776,1.788,5.146-0.391S42.551,141.257,40.47,140.262z"/>
		<path opacity="0.15" fill="#2A2B2B" d="M42.133,105.728c-1.686-1.583-4.076-3.815-5.305-2.169
			c-1.228,1.644,0.131,2.937,1.816,4.522c1.688,1.583,3.061,2.856,4.287,1.213C44.162,107.65,43.818,107.314,42.133,105.728z"/>
		<path opacity="0.15" fill="#2A2B2B" d="M25.002,63.943c-2.327-0.415-5.618-0.989-6.189,1.445
			c-0.572,2.435,1.309,2.786,3.633,3.201c2.326,0.416,4.212,0.739,4.785-1.694C27.805,64.459,27.326,64.359,25.002,63.943z"/>
		<path opacity="0.15" fill="#2A2B2B" d="M50.219,36.711c-2.326-0.416-5.617-0.991-6.188,1.444
			c-0.572,2.436,1.308,2.787,3.634,3.202c2.324,0.416,4.211,0.738,4.784-1.695C53.021,37.228,52.542,37.127,50.219,36.711z"/>
		<path opacity="0.15" fill="#2A2B2B" d="M27.302,20.715c-2.327-0.416-5.618-0.991-6.189,1.443
			c-0.572,2.436,1.308,2.787,3.633,3.203c2.326,0.416,4.212,0.737,4.784-1.695C30.104,21.231,29.625,21.13,27.302,20.715z"/>
		<path opacity="0.15" fill="#2A2B2B" d="M41.461,15.366c-2.166-0.399-5.23-0.955-5.662,0.819c-0.432,1.774,1.32,2.109,3.486,2.508
			c2.166,0.4,3.923,0.713,4.354-1.06C44.072,15.859,43.626,15.766,41.461,15.366z"/>
		<path opacity="0.15" fill="#2A2B2B" d="M31.303,48.353c-1.64-0.292-3.96-0.698-4.363,1.018c-0.403,1.716,0.922,1.964,2.562,2.257
			c1.639,0.293,2.969,0.521,3.372-1.194C33.277,48.717,32.94,48.646,31.303,48.353z"/>
		<path opacity="0.15" fill="#2A2B2B" d="M46.888,83.581c-2.872,0.797-6.931,1.935-6.063,4.302c0.863,2.367,3.196,1.735,6.068,0.941
			c2.873-0.797,5.193-1.455,4.329-3.822C50.359,82.634,49.758,82.786,46.888,83.581z"/>
		<path opacity="0.15" fill="#2A2B2B" d="M18.156,121.348c-2.269,0.611-5.472,1.486-4.632,3.86c0.837,2.377,2.681,1.896,4.949,1.286
			c2.27-0.61,4.101-1.118,3.262-3.491C20.899,120.626,20.423,120.739,18.156,121.348z"/>
	</g>
</g>
</svg>
