<?xml version="1.0" encoding="utf-8"?>
<!-- Generator: Adobe Illustrator 16.0.0, SVG Export Plug-In . SVG Version: 6.00 Build 0)  -->
<!DOCTYPE svg PUBLIC "-//W3C//DTD SVG 1.1//EN" "http://www.w3.org/Graphics/SVG/1.1/DTD/svg11.dtd">
<svg version="1.1" id="Layer_1" xmlns="http://www.w3.org/2000/svg" xmlns:xlink="http://www.w3.org/1999/xlink" x="0px" y="0px"
	 width="154px" height="57px" viewBox="0 0 154 57" enable-background="new 0 0 154 57" xml:space="preserve">
<g>
	<defs>
		<rect id="SVGID_1_" x="-0.02" y="-0.009" width="154" height="57"/>
	</defs>
	<clipPath id="SVGID_2_">
		<use xlink:href="#SVGID_1_"  overflow="visible"/>
	</clipPath>
	<g clip-path="url(#SVGID_2_)">
		<g>
			<path fill="#694733" d="M154.05-30.265h-23.629c-5.523,0-10.003,2.687-10.003,6.002c0-3.315-4.479-6.002-10.002-6.002H64.408
				c-5.523,0-10.002,2.687-10.002,6.002c0-3.315-4.478-6.002-10.002-6.002H0.02l-0.03,63.966l15.408,0.055
				c5.524,0,10.002-2.688,10.002-6.003c0,3.315,4.479,6.003,10.002,6.003h46.008c5.523,0,10.002-2.688,10.002-6.003
				c0,3.315,4.479,6.003,10.003,6.003h52.635V-30.265z"/>
			<g>
				<defs>
					<path id="SVGID_3_" d="M154.05-30.265h-23.629c-5.523,0-10.003,2.687-10.003,6.002c0-3.315-4.479-6.002-10.002-6.002H64.408
						c-5.523,0-10.002,2.687-10.002,6.002c0-3.315-4.478-6.002-10.002-6.002H0.02l-0.03,63.966l15.408,0.055
						c5.524,0,9.627-2.688,9.627-6.003c0,3.315,4.854,6.003,10.377,6.003h46.008c5.523,0,10.002-2.688,10.002-6.003
						c0,3.315,4.479,6.003,10.003,6.003h52.635V-30.265z"/>
				</defs>
				<clipPath id="SVGID_4_">
					<use xlink:href="#SVGID_3_"  overflow="visible"/>
				</clipPath>
				<path opacity="0.15" clip-path="url(#SVGID_4_)" fill="#2A2B2B" d="M20.704,7.362c0.996-2.083,2.39-5.034,0.21-6.403
					c-2.18-1.37-3,0.31-3.996,2.392c-0.996,2.084-1.788,3.779,0.392,5.148C19.491,9.869,19.709,9.445,20.704,7.362z"/>
				<path opacity="0.15" clip-path="url(#SVGID_4_)" fill="#2A2B2B" d="M55.252,9.027c1.584-1.686,3.816-4.079,2.17-5.307
					c-1.646-1.228-2.938,0.131-4.524,1.817c-1.585,1.688-2.859,3.062-1.213,4.289C53.33,11.055,53.667,10.713,55.252,9.027z"/>
				<path opacity="0.15" clip-path="url(#SVGID_4_)" fill="#2A2B2B" d="M124.296,17.116c0.415-2.328,0.99-5.619-1.444-6.192
					c-2.437-0.571-2.788,1.309-3.204,3.636c-0.416,2.325-0.74,4.212,1.695,4.785C123.78,19.918,123.88,19.439,124.296,17.116z"/>
				<path opacity="0.15" clip-path="url(#SVGID_4_)" fill="#2A2B2B" d="M145.65,8.355c0.398-2.167,0.955-5.232-0.82-5.664
					c-1.774-0.432-2.11,1.321-2.509,3.485c-0.4,2.169-0.713,3.925,1.062,4.357C145.157,10.967,145.25,10.521,145.65,8.355z"/>
				<path opacity="0.15" clip-path="url(#SVGID_4_)" fill="#2A2B2B" d="M77.409,13.783c-0.798-2.874-1.937-6.932-4.304-6.065
					c-2.369,0.863-1.737,3.198-0.942,6.07c0.797,2.873,1.456,5.195,3.822,4.33C78.355,17.256,78.203,16.654,77.409,13.783z"/>
				<path opacity="0.4" clip-path="url(#SVGID_4_)" fill="#2A2B2B" d="M0.02,14.764v24.008h154.03V14.764c0,0-13.003,0-29.005,0
					c-16.004,0-33.007-5.001-33.007-5.001s-7.002,6.002-32.006,6.002c-25.005,0-33.007-5.001-34.007-6.002
					C23.025,14.764,0.02,14.764,0.02,14.764z"/>
			</g>
		</g>
		<g>
			<path fill="#694733" d="M154.05,26.878h-23.629c-5.523,0-10.003,2.688-10.003,6.002c0-3.313-4.479-6.002-10.002-6.002H64.408
				c-5.523,0-10.002,2.688-10.002,6.002c0-3.313-4.478-6.002-10.002-6.002H0.02l-0.03,63.966l15.408,0.055
				c5.524,0,10.002-2.686,10.002-6.002c0,3.316,4.479,6.002,10.002,6.002h46.008c5.523,0,10.002-2.686,10.002-6.002
				c0,3.316,4.479,6.002,10.003,6.002h52.635V26.878z"/>
			<g>
				<defs>
					<path id="SVGID_5_" d="M154.05,26.878h-23.629c-5.523,0-10.003,2.688-10.003,6.002c0-3.313-4.479-6.002-10.002-6.002H64.408
						c-5.523,0-10.002,2.688-10.002,6.002c0-3.313-4.478-6.002-10.002-6.002H0.02l-0.03,63.966l15.408,0.055
						c5.524,0,9.627-2.686,9.627-6.002c0,3.316,4.854,6.002,10.377,6.002h46.008c5.523,0,10.002-2.686,10.002-6.002
						c0,3.316,4.479,6.002,10.003,6.002h52.635V26.878z"/>
				</defs>
				<clipPath id="SVGID_6_">
					<use xlink:href="#SVGID_5_"  overflow="visible"/>
				</clipPath>
				<path opacity="0.15" clip-path="url(#SVGID_6_)" fill="#2A2B2B" d="M97.054,49.034c0.415-2.326,0.99-5.619-1.445-6.191
					c-2.437-0.571-2.787,1.311-3.203,3.636c-0.417,2.326-0.739,4.212,1.695,4.786C96.537,51.836,96.637,51.358,97.054,49.034z"/>
				<path opacity="0.15" clip-path="url(#SVGID_6_)" fill="#2A2B2B" d="M140.299,51.334c0.414-2.326,0.99-5.619-1.444-6.19
					c-2.436-0.573-2.788,1.31-3.203,3.634c-0.416,2.327-0.739,4.213,1.695,4.787C139.783,54.138,139.883,53.659,140.299,51.334z"/>
				<path opacity="0.15" clip-path="url(#SVGID_6_)" fill="#2A2B2B" d="M112.65,54.3c0.292-1.641,0.698-3.96-1.019-4.363
					c-1.717-0.405-1.965,0.921-2.258,2.562c-0.293,1.64-0.521,2.971,1.195,3.373C112.286,56.277,112.356,55.939,112.65,54.3z"/>
				<path opacity="0.15" clip-path="url(#SVGID_6_)" fill="#2A2B2B" d="M39.626,42.186c-0.612-2.271-1.486-5.474-3.862-4.635
					c-2.376,0.838-1.897,2.683-1.287,4.952s1.118,4.103,3.494,3.263C40.348,44.929,40.235,44.453,39.626,42.186z"/>
				<path opacity="0.2" clip-path="url(#SVGID_6_)" fill="#2A2B2B" d="M0.02,35.881V22.877h154.03v13.004c0,0-20.034,0-30.036,5.002
					c-5.001-3.001-7.002-6.003-32.007-6.003c-25.004,0-33.006,5.003-34.006,6.003C55,35.881,0.02,35.881,0.02,35.881z"/>
			</g>
		</g>
	</g>
</g>
</svg>
